<?xml version="1.0" ?><svg height="24px" version="1.1" viewBox="0 0 24 24" width="24px" xmlns="http://www.w3.org/2000/svg" xmlns:sketch="http://www.bohemiancoding.com/sketch/ns" xmlns:xlink="http://www.w3.org/1999/xlink"><title/><desc/><defs/><g fill="none" fill-rule="evenodd" id="miu" stroke="none" stroke-width="1"><g id="Artboard-1" transform="translate(-503.000000, -191.000000)"><g id="slice" transform="translate(215.000000, 119.000000)"/><path d="M504,202.5 C504,196.148725 509.148725,191 515.5,191 C521.851275,191 527,196.148725 527,202.5 C527,208.851275 521.851275,214 515.5,214 C509.148725,214 504,208.851275 504,202.5 Z M526,202.5 C526,196.70101 521.29899,192 515.5,192 C509.70101,192 505,196.70101 505,202.5 C505,208.29899 509.70101,213 515.5,213 C521.29899,213 526,208.29899 526,202.5 Z M506.705001,206.097989 L512.753875,202.065406 L507.190094,197.89257 C507.352981,197.599416 507.53093,197.315784 507.722896,197.04272 L515.5,202.888748 L523.277104,197.04272 C523.46907,197.315784 523.647019,197.599416 523.809906,197.89257 L518.249299,202.063026 L524.296445,206.094456 C524.16829,206.407755 524.023883,206.712683 523.864274,207.008192 L517.400934,202.699299 L515.5,204.125 L513.60224,202.70168 L507.137513,207.011499 C506.977794,206.716068 506.833275,206.411216 506.705001,206.097989 L506.705001,206.097989 Z" fill="#000000" id="circle-email-mail-send-outline-stroke"/></g></g></svg>